<svg xmlns="http://www.w3.org/2000/svg" version="1.1" xmlns:xlink="http://www.w3.org/1999/xlink" xmlns:svgjs="http://svgjs.dev/svgjs" width="2000" height="525" viewBox="0 0 2000 525"><g transform="matrix(1,0,0,1,-1.2121212121212466,-0.1290037767382728)"><svg viewBox="0 0 396 104" data-background-color="#293040" preserveAspectRatio="xMidYMid meet" height="525" width="2000" xmlns="http://www.w3.org/2000/svg" xmlns:xlink="http://www.w3.org/1999/xlink"><g id="tight-bounds" transform="matrix(1,0,0,1,0.2400000000000091,0.025555033868158716)"><svg viewBox="0 0 395.52 103.94888993226365" height="103.94888993226365" width="395.52"><g><svg viewBox="0 0 633.1057387902545 166.39016676019577" height="103.94888993226365" width="395.52"><g><rect width="10.857624423362193" height="144.47771353996737" x="198.30501378217454" y="10.9562266101142" fill="#ffffff" opacity="1" stroke-width="0" stroke="transparent" fill-opacity="1" class="rect-qz-0" data-fill-palette-color="primary" rx="1%" id="qz-0" data-palette-color="#ffffff"></rect></g><g transform="matrix(1,0,0,1,237.5857387902545,22.996036071778143)"><svg viewBox="0 0 395.52 120.39809461663948" height="120.39809461663948" width="395.52"><g id="textblocktransform"><svg viewBox="0 0 395.52 120.39809461663948" height="120.39809461663948" width="395.52" id="textblock"><g><svg viewBox="0 0 395.52 120.39809461663948" height="120.39809461663948" width="395.52"><g transform="matrix(1,0,0,1,0,0)"><svg width="395.52" viewBox="0.35 -35.1 153.24 46.650000000000006" height="120.39809461663948" data-palette-color="#ffffff"><path d="M8 0L0.35 0 0.35-1.05 1.7-1.45Q2.75-1.75 3.33-2.35 3.9-2.95 4.25-4L4.25-4 14.35-33.2 18.5-33.2 28.55-3.8Q28.95-2.7 29.45-2.13 29.95-1.55 31.05-1.2L31.05-1.2 31.8-1 31.8 0 19.1 0 19.1-1 19.95-1.25Q21.05-1.6 21.28-2.35 21.5-3.1 21.15-4.2L21.15-4.2 19.05-10.65 8-10.65 5.85-4.3Q5.5-3.2 5.65-2.5 5.8-1.8 6.9-1.4L6.9-1.4 8-1.05 8 0ZM13.7-27.15L8.5-12.1 18.6-12.1 13.7-27.15ZM44.95 0L33.5 0 33.5-0.95 34.3-1.15Q35.95-1.65 35.95-3.6L35.95-3.6 35.95-18.35Q35.9-19.4 35.6-19.98 35.3-20.55 34.3-20.75L34.3-20.75 33.5-20.95 33.5-21.85 41.6-24.75 42.2-24.2 42.55-21.1Q44.35-22.7 46.57-23.73 48.8-24.75 50.95-24.75L50.95-24.75Q54.25-24.75 56.02-22.95 57.8-21.15 57.8-17.45L57.8-17.45 57.8-3.55Q57.8-1.6 59.6-1.1L59.6-1.1 60.15-0.95 60.15 0 48.65 0 48.65-0.95 49.4-1.15Q51.05-1.7 51.05-3.6L51.05-3.6 51.05-18.45Q51.05-20.2 50.3-21 49.55-21.8 47.8-21.8L47.8-21.8Q45.35-21.8 42.7-19.65L42.7-19.65 42.7-3.55Q42.7-1.6 44.45-1.1L44.45-1.1 44.95-0.95 44.95 0ZM69.45 0.7L69.45 0.7Q66.6 0.7 64.62-0.93 62.65-2.55 62.65-5.6L62.65-5.6Q62.65-8 64.97-10.03 67.3-12.05 72.3-13L72.3-13Q73.15-13.2 74.27-13.38 75.4-13.55 76.5-13.75L76.5-13.75 76.5-17.3Q76.5-20.7 75.65-22 74.8-23.3 72.95-23.3L72.95-23.3 72.8-23.3Q71.65-23.3 70.97-22.58 70.3-21.85 70.1-20.2L70.1-20.2 69.95-19.55Q69.8-17.55 68.9-16.63 68-15.7 66.65-15.7L66.65-15.7Q65.4-15.7 64.57-16.48 63.75-17.25 63.75-18.5L63.75-18.5Q63.75-20.55 65.15-21.95 66.55-23.35 68.87-24.05 71.2-24.75 73.9-24.75L73.9-24.75Q78.35-24.75 80.7-22.6 83.05-20.45 83.05-15.6L83.05-15.6 83.05-4.45Q83.05-2.3 85.1-2.3L85.1-2.3 86.25-2.3 86.75-1.75Q85.85-0.6 84.75 0.03 83.65 0.65 81.75 0.65L81.75 0.65Q79.6 0.65 78.32-0.38 77.05-1.4 76.65-3.1L76.65-3.1Q75.05-1.4 73.5-0.35 71.95 0.7 69.45 0.7ZM72.35-2.5L72.35-2.5Q73.35-2.5 74.25-2.95 75.15-3.4 76.5-4.45L76.5-4.45 76.5-12.45Q75.2-12.25 73.85-11.95L73.85-11.95Q71.7-11.45 70.37-10.1 69.05-8.75 69.05-6.45L69.05-6.45Q69.05-4.45 69.97-3.48 70.9-2.5 72.35-2.5ZM99.64 0L87.99 0 87.99-0.95 88.74-1.15Q90.39-1.7 90.39-3.65L90.39-3.65Q90.39-5.35 90.42-7.08 90.44-8.8 90.44-10.5L90.44-10.5 90.44-29.5Q90.44-30.55 90.09-31.08 89.74-31.6 88.74-31.85L88.74-31.85 87.99-32.05 87.99-33 96.74-35.1 97.39-34.65 97.19-27.6 97.19-3.65Q97.24-2.65 97.62-2.02 97.99-1.4 98.94-1.15L98.94-1.15 99.64-0.95 99.64 0ZM114.39 0.7L114.39 0.7Q110.69 0.7 107.92-0.85 105.14-2.4 103.62-5.25 102.09-8.1 102.09-12.05L102.09-12.05Q102.09-16 103.72-18.85 105.34-21.7 108.12-23.23 110.89-24.75 114.39-24.75L114.39-24.75Q117.89-24.75 120.67-23.23 123.44-21.7 125.07-18.88 126.69-16.05 126.69-12.05L126.69-12.05Q126.69-8.1 125.17-5.23 123.64-2.35 120.89-0.83 118.14 0.7 114.39 0.7ZM114.39-0.7L114.39-0.7Q116.19-0.7 117.32-1.68 118.44-2.65 118.94-5.1 119.44-7.55 119.44-11.95L119.44-11.95Q119.44-16.4 118.94-18.88 118.44-21.35 117.32-22.33 116.19-23.3 114.39-23.3L114.39-23.3Q112.59-23.3 111.49-22.33 110.39-21.35 109.87-18.88 109.34-16.4 109.34-11.95L109.34-11.95Q109.34-7.55 109.87-5.1 110.39-2.65 111.49-1.68 112.59-0.7 114.39-0.7ZM139.79-8.55L139.79-8.55Q136.49-8.55 134.14-9.65L134.14-9.65 134.14-7.85Q134.14-6.35 135.64-6.05L135.64-6.05 144.54-4.4Q147.09-3.9 149.04-3.18 150.99-2.45 152.09-1.13 153.19 0.2 153.19 2.45L153.19 2.45Q153.19 4.85 151.61 6.93 150.04 9 146.96 10.28 143.89 11.55 139.29 11.55L139.29 11.55Q135.34 11.55 133.01 10.73 130.69 9.9 129.69 8.6 128.69 7.3 128.69 5.8L128.69 5.8Q128.69 4 129.91 2.2 131.14 0.4 133.09-0.8L133.09-0.8Q130.04-1.95 130.04-4.45L130.04-4.45Q130.04-5.4 130.49-6.2 130.94-7 131.59-7.8L131.59-7.8 133.39-10.05Q129.79-12.15 129.79-16.6L129.79-16.6Q129.79-20.25 132.36-22.5 134.94-24.75 139.79-24.75L139.79-24.75Q144.64-24.75 147.29-22.5L147.29-22.5Q148.89-22.75 150.29-23.3 151.69-23.85 152.89-24.8L152.89-24.8 153.59-24.3 153.59-21.5 148.19-21.5Q149.79-19.5 149.79-16.6L149.79-16.6Q149.79-13.05 147.21-10.8 144.64-8.55 139.79-8.55ZM139.69-9.9L139.69-9.9Q141.79-9.9 142.76-11.53 143.74-13.15 143.74-16.75L143.74-16.75Q143.74-20.3 142.79-21.85 141.84-23.4 139.84-23.4L139.84-23.4Q137.84-23.4 136.86-21.83 135.89-20.25 135.89-16.65L135.89-16.65Q135.89-13.05 136.79-11.48 137.69-9.9 139.69-9.9ZM132.59 4.35L132.59 4.35Q132.59 7.1 134.34 8.47 136.09 9.85 139.89 9.85L139.89 9.85Q144.09 9.85 146.11 8.47 148.14 7.1 148.14 4.85L148.14 4.85Q148.14 3.45 147.11 2.65 146.09 1.85 143.69 1.4L143.69 1.4 134.74-0.35Q134.54-0.4 134.34-0.45L134.34-0.45Q133.59 0.55 133.09 1.85 132.59 3.15 132.59 4.35Z" opacity="1" transform="matrix(1,0,0,1,0,0)" fill="#ffffff" class="wordmark-text-0" data-fill-palette-color="primary" id="text-0"></path></svg></g></svg></g></svg></g></svg></g><g><svg viewBox="0 0 169.88191319745675 166.39016676019577" height="166.39016676019577" width="169.88191319745675"><g><svg version="1.1" xmlns="http://www.w3.org/2000/svg" xmlns:xlink="http://www.w3.org/1999/xlink" x="0" y="0" viewBox="1.054 1.441396205895142 100.00000002337781 97.94460379410485" enable-background="new 1.054 1.442 100 97.944" xml:space="preserve" width="169.88191319745675" height="166.39016676019577" class="icon-icon-0" data-fill-palette-color="accent" id="icon-0"><path d="M59.455 39.583C50.854 23.803 52.435 1.561 27.884 1.442 3.334 1.324 1.054 18.515 1.054 41.26v57.744l16.152 0.382 83.848-0.382V72.175C101.055 42.906 68.974 57.051 59.455 39.583zM96.177 94.126H5.932V81.931h4.877v9.755h2.44v-9.755h2.438v9.755h2.439v-9.755h9.755v9.755h2.439v-9.755h2.44v9.755h2.438v-9.755h2.44v9.755h2.439v-9.755h7.317v9.755h2.438v-9.755h2.439v9.755h2.438v-9.755h9.758v9.755h2.44v-9.755h2.438v9.755h2.439v-9.755h2.438v9.755h2.44v-9.755h7.317v9.755h2.439v-9.755h2.438v9.755h2.438v-9.755h4.879V94.126z" fill="#ffffff" data-fill-palette-color="accent"></path></svg></g></svg></g></svg></g><defs></defs></svg><rect width="395.52" height="103.94888993226365" fill="none" stroke="none" visibility="hidden"></rect></g></svg></g></svg>